<svg id="logo" xmlns="http://www.w3.org/2000/svg" viewBox="0 0 789.94 358.69"><defs><style>.cls-1{fill:#76b900;}.cls-2{fill:#fff;}.cls-3{fill:#231f20;}</style></defs><title>NVIDIA-Web-Components-2.0-Sticker-Sheet-v1_Artboard 1 copy</title><polygon class="cls-1" points="36.53 43.76 36.53 261.66 36.53 268.78 36.53 314.9 68.21 314.9 68.24 314.93 753.4 314.9 753.4 309.33 753.4 299.7 753.4 261.66 753.4 43.76 36.53 43.76"/><path id="Reg" class="cls-2" d="M432.63,133.75v-1h.64c.36,0,.83,0,.83.46s-.24.54-.66.54h-.81m0,.7h.43l1,1.75h1.09l-1.1-1.82a1,1,0,0,0,1-1.08c0-1-.65-1.25-1.76-1.25h-1.61v4.15h.92v-1.75m4.67-.32a4,4,0,1,0-4,3.86,3.8,3.8,0,0,0,4-3.86m-1.15,0a2.85,2.85,0,0,1-2.85,3h0a3,3,0,1,1,2.85-3Z"/><path id="NVIDIA" class="cls-2" d="M290.13,92.91l.1,43.77,12.36,0-.09-43.78Zm-97.25.14.09,43.83,12.47,0-.07-34h9.73c3.2,0,5.41.76,7,2.4,2,2.08,2.76,5.44,2.78,11.59l0,20,12.08,0-.05-24.22c0-17.28-11.06-19.59-21.83-19.57ZM310,92.87l.09,43.77,20.05,0c10.68,0,14.17-1.81,17.93-5.8,2.66-2.8,4.37-8.94,4.36-15.65,0-6.16-1.49-11.64-4-15.06-4.59-6.1-11.19-7.28-21-7.26Zm12.28,9.5h5.32c7.71,0,12.7,3.44,12.72,12.42s-5,12.47-12.67,12.48h-5.32Zm-50-9.42-10.25,34.71L252.1,93l-13.34,0L253,136.76l17.81,0,14.14-43.8Zm85.95,43.59,12.37,0-.09-43.78-12.37,0Zm34.57-43.83-17.17,43.78,12.19,0,2.71-7.73,20.43,0,2.6,7.73,13.24,0L409.34,92.67Zm8,8,7.53,20.48-15.21,0Z"/><path id="Eye_Mark" data-name="Eye Mark" class="cls-2" d="M113.19,100.16v-6q.87-.06,1.77-.09c16.48-.52,27.29,14.16,27.29,14.16s-11.67,16.21-24.19,16.21a15.07,15.07,0,0,1-4.87-.78V105.38c6.41.77,7.7,3.6,11.56,10l8.57-7.23S127.06,100,116.51,100a32.24,32.24,0,0,0-3.32.19m0-19.9v9c.59,0,1.18-.08,1.77-.1,22.92-.78,37.85,18.79,37.85,18.79s-17.15,20.85-35,20.85a25.84,25.84,0,0,1-4.61-.41V134a31.49,31.49,0,0,0,3.83.24c16.63,0,28.65-8.49,40.29-18.53,1.93,1.54,9.83,5.3,11.46,7-11.07,9.27-36.87,16.73-51.49,16.73-1.41,0-2.76-.08-4.09-.21V147h63.18V80.26Zm0,43.38v4.75c-15.38-2.74-19.65-18.72-19.65-18.72a33.3,33.3,0,0,1,19.65-9.51v5.22h0c-6.43-.77-11.46,5.24-11.46,5.24s2.82,10.12,11.49,13M85.88,109a38.07,38.07,0,0,1,27.31-14.84V89.26C93,90.88,75.58,108,75.58,108s9.88,28.57,37.61,31.19V134C92.84,131.4,85.88,109,85.88,109Z"/><path class="cls-2" d="M330.24,272.33l-24.3-47.4H280.29v47.4h-11.4V165.53h40.95c18.6,0,31.65,11.25,31.65,29.7,0,15.6-9.45,25.8-23.25,28.65l25.35,48.45Zm-21.45-96.6h-28.5v39.15h28.5c12.45,0,21.3-6.45,21.3-19.5S321.24,175.73,308.79,175.73Z"/><path class="cls-2" d="M356.29,272.33V165.53h66.3v10.2h-54.9v37.65h46.8v10.2h-46.8v38.55h54.9v10.2Z"/><path class="cls-2" d="M511.54,272.33,503,248.18H456.34l-8.55,24.15H435.64l39.3-106.8h9.6l39.15,106.8Zm-31.65-90.45-20.1,56.4h39.9Z"/><path class="cls-2" d="M599.55,262.43c-6.45,6.45-15.9,9.9-27,9.9h-36.6V165.53h36.6c11.11,0,20.56,3.45,27,9.9,11.1,11.1,10.5,27.45,10.5,42.3S610.65,251.33,599.55,262.43Zm-7.95-78.9c-5.56-5.7-12.76-7.8-21-7.8H547.34v86.4h23.25c8.25,0,15.45-2.1,21-7.8,7.35-7.65,7-23.55,7-36.6S599,191.18,591.6,183.53Z"/><path class="cls-2" d="M663.35,228.23v44.1H652v-44.1l-31.81-62.7h12.3l25.21,51.15,24.9-51.15h12.3Z"/><path class="cls-3" d="M232.38,229.31h1.3a17.06,17.06,0,0,0,12.57-5.21,17.27,17.27,0,0,0,5.18-12.61V184.06a18,18,0,0,0-17.74-18H157L129.66,244.7l-28.42-78.62H78l40.31,106.58h21.17l31.79-87.53h53.79a5,5,0,0,1,3.77,1.63,5.39,5.39,0,0,1,1.57,3.85v14.48a5.34,5.34,0,0,1-5.34,5.33H169.91v62.24h20.42V229.31h19.54l26.32,43.35h22.25Z"/></svg>